<?xml version="1.0" standalone="no"?>
<svg xmlns:xlink="http://www.w3.org/1999/xlink" id="wave" style="transform:rotate(0deg); transition: 0.3s" viewBox="0 0 1440 270" version="1.1" xmlns="http://www.w3.org/2000/svg"><defs><linearGradient id="sw-gradient-0" x1="0" x2="0" y1="1" y2="0"><stop stop-color="rgba(243, 106, 62, 1)" offset="0%"/><stop stop-color="rgba(45.906, 42.398, 34.643, 1)" offset="100%"/></linearGradient></defs><path style="transform:translate(0, 0px); opacity:1" fill="url(#sw-gradient-0)" d="M0,135L60,126C120,117,240,99,360,103.5C480,108,600,135,720,130.5C840,126,960,90,1080,85.5C1200,81,1320,108,1440,103.5C1560,99,1680,63,1800,49.5C1920,36,2040,45,2160,63C2280,81,2400,108,2520,117C2640,126,2760,117,2880,103.5C3000,90,3120,72,3240,58.5C3360,45,3480,36,3600,40.5C3720,45,3840,63,3960,85.5C4080,108,4200,135,4320,144C4440,153,4560,144,4680,121.5C4800,99,4920,63,5040,40.5C5160,18,5280,9,5400,27C5520,45,5640,90,5760,121.5C5880,153,6000,171,6120,166.5C6240,162,6360,135,6480,121.5C6600,108,6720,108,6840,130.5C6960,153,7080,198,7200,216C7320,234,7440,225,7560,225C7680,225,7800,234,7920,211.5C8040,189,8160,135,8280,121.5C8400,108,8520,135,8580,148.5L8640,162L8640,270L8580,270C8520,270,8400,270,8280,270C8160,270,8040,270,7920,270C7800,270,7680,270,7560,270C7440,270,7320,270,7200,270C7080,270,6960,270,6840,270C6720,270,6600,270,6480,270C6360,270,6240,270,6120,270C6000,270,5880,270,5760,270C5640,270,5520,270,5400,270C5280,270,5160,270,5040,270C4920,270,4800,270,4680,270C4560,270,4440,270,4320,270C4200,270,4080,270,3960,270C3840,270,3720,270,3600,270C3480,270,3360,270,3240,270C3120,270,3000,270,2880,270C2760,270,2640,270,2520,270C2400,270,2280,270,2160,270C2040,270,1920,270,1800,270C1680,270,1560,270,1440,270C1320,270,1200,270,1080,270C960,270,840,270,720,270C600,270,480,270,360,270C240,270,120,270,60,270L0,270Z"/></svg>